#N canvas 0 0 1053 771 10;
#X obj 851 53 r N1;
#X obj 851 79 r L1;
#X obj 851 105 r Y1;
#X obj 912 161 r X1.1;
#X obj 912 189 r X1.2;
#X obj 912 218 r X1.3;
#X obj 966 188 r S1.2;
#X obj 966 217 r S1.3;
#X text 883 53 Number of fingers pressed;
#X text 884 79 Last finger pressed;
#X text 886 106 Overall Y position;
#X text 964 139 Touch size;
#X text 852 163 Finger 1;
#X text 852 190 Finger 2;
#X text 853 219 Finger 3;
#X text 848 29 SENSOR 1;
#X text 854 247 -------------------------------;
#X text 910 139 X pos;
#X obj 355 483 dac~, f 6;
#X obj 199 16 adc~;
#X text 848 124 -------------------------------;
#X obj 355 168 mtof;
#X obj 355 190 t b f;
#X obj 355 234 /;
#X msg 355 212 1;
#X obj 355 256 * 1000;
#X obj 219 427 delwrite~ deli1 1000;
#X obj 355 279 vd~ deli1 12;
#X obj 965 161 r S1.1;
#X obj 355 303 lop~ 6000;
#X obj 355 327 *~ 0.95;
#X obj 219 348 *~ 1;
#X obj 240 254 > 0;
#X obj 240 206 r N1;
#X obj 34 563 dac~ 27 28;
#X obj 91 537 *~;
#X obj 106 510 line~;
#X obj 91 408 osc~ 5000;
#X msg 106 485 0, f 2;
#X msg 133 485 1, f 2;
#X obj 106 458 sel 0;
#X msg 355 145 36;
#X obj 355 120 loadbang;
#X obj 240 231 change 1;
#X floatatom 597 183 5 0 0 0 - - -, f 5;
#X floatatom 780 183 5 0 0 0 - - -, f 5;
#X obj 632 183 t b;
#X obj 597 206 expr 1.4142 * sqrt(($f1-0.5)*($f1-0.5) + ($f2-0.5)*($f2-0.5))
, f 31;
#X obj 597 305 sig~;
#X obj 501 279 expr 1 - $f1;
#X obj 597 281 + 65;
#X obj 646 258 * 8;
#X obj 240 277 sel 0;
#X msg 240 322 0, f 4;
#X msg 267 298 1;
#X obj 355 385 vcf~, f 11;
#X obj 691 140 r N1;
#X obj 597 157 spigot;
#X obj 779 157 spigot;
#X obj 597 132 r X1.1;
#X obj 779 132 r Y1;
#X obj 646 281 expr 8 - $f1;
#X obj 597 257 * 950;
#X obj 501 304 / 10;
#X obj 501 324 + 0.9;
#X obj 106 432 r N1;
#X obj 220 69 delwrite~ delboy 15;
#X obj 219 95 delread~ delboy 15;
#X obj 387 453 rev2~ 75 70 500 20;
#X obj 219 124 vcf~, f 11;
#X obj 355 357 *~;
#X obj 296 270 t 1 0;
#X obj 220 45 *~ 4;
#X text 20 372 Just to scope stuff in bela;
#X text 33 146 input compression if needed;
#X text 545 413 output compression if needed;
#X text 432 384 resonant filter on output;
#X text 266 33 i delayed the audio input due to latency with the touch
key sensors;
#X text 506 456 bit of reverb;
#X text 386 146 add midi note number here!;
#X text 577 333 converts touckey coordinates to polar and ajusts filter
and decay based on touch location;
#X obj 59 166 compress1;
#X obj 441 413 compress2;
#X text 12 272 this attentuated the patch unless the touchkeys are
touched;
#X connect 19 1 34 0;
#X connect 19 1 72 0;
#X connect 21 0 22 0;
#X connect 22 0 24 0;
#X connect 22 1 23 1;
#X connect 23 0 25 0;
#X connect 24 0 23 0;
#X connect 25 0 27 0;
#X connect 27 0 29 0;
#X connect 29 0 30 0;
#X connect 30 0 26 0;
#X connect 30 0 70 0;
#X connect 31 0 26 0;
#X connect 32 0 52 0;
#X connect 33 0 43 0;
#X connect 35 0 34 1;
#X connect 36 0 35 1;
#X connect 37 0 35 0;
#X connect 38 0 36 0;
#X connect 39 0 36 0;
#X connect 40 0 38 0;
#X connect 40 1 39 0;
#X connect 41 0 21 0;
#X connect 42 0 41 0;
#X connect 43 0 32 0;
#X connect 44 0 47 0;
#X connect 45 0 46 0;
#X connect 45 0 47 1;
#X connect 46 0 44 0;
#X connect 47 0 49 0;
#X connect 47 0 51 0;
#X connect 47 0 62 0;
#X connect 48 0 55 1;
#X connect 49 0 63 0;
#X connect 50 0 48 0;
#X connect 51 0 61 0;
#X connect 52 0 53 0;
#X connect 52 1 54 0;
#X connect 52 1 71 0;
#X connect 53 0 31 1;
#X connect 54 0 31 1;
#X connect 55 0 18 0;
#X connect 55 0 68 0;
#X connect 55 0 18 1;
#X connect 56 0 57 1;
#X connect 56 0 58 1;
#X connect 57 0 44 0;
#X connect 58 0 45 0;
#X connect 59 0 57 0;
#X connect 60 0 58 0;
#X connect 61 0 55 2;
#X connect 62 0 50 0;
#X connect 63 0 64 0;
#X connect 64 0 30 1;
#X connect 65 0 40 0;
#X connect 67 0 69 0;
#X connect 68 0 18 0;
#X connect 68 0 18 1;
#X connect 69 0 31 0;
#X connect 70 0 55 0;
#X connect 71 0 70 1;
#X connect 71 1 70 1;
#X connect 72 0 66 0;
#X connect 82 0 18 0;
#X connect 82 0 18 1;
#X connect 82 0 68 0;
