#N canvas 0 22 450 300 10;
#X obj 240 173 clip~ 0 1;
#X obj 240 217 lop~;
#N canvas 0 22 348 381 rms 0;
#X obj 59 54 env~ 512;
#X obj 59 79 dbtorms~;
#X obj 59 140 -~;
#X obj 59 188 /~;
#X obj 59 233 +~;
#X obj 20 114 +~ 0;
#X obj 59 263 /~;
#X obj 59 21 inlet~;
#X obj 59 287 outlet~;
#X obj 142 50 switch~;
#X obj 142 23 inlet;
#X obj 74 114 r thresh2;
#X obj 74 164 r ratio2;
#X obj 74 209 r thresh2;
#X connect 0 0 1 0;
#X connect 1 0 2 0;
#X connect 1 0 5 0;
#X connect 2 0 3 0;
#X connect 3 0 4 0;
#X connect 4 0 6 0;
#X connect 5 0 6 1;
#X connect 6 0 8 0;
#X connect 7 0 0 0;
#X connect 10 0 9 0;
#X connect 11 0 2 1;
#X connect 12 0 3 1;
#X connect 13 0 4 1;
#X restore 240 131 pd rms;
#N canvas 275 36 308 334 peak 0;
#X obj 54 49 abs~;
#X obj 54 106 -~;
#X obj 54 154 /~;
#X obj 54 199 +~;
#X obj 15 80 +~ 0;
#X obj 54 229 /~;
#X obj 54 21 inlet~;
#X obj 54 254 outlet~;
#X obj 142 50 switch~;
#X obj 142 23 inlet;
#X obj 69 82 r thresh2;
#X obj 69 130 r ratio2;
#X obj 69 175 r thresh2;
#X connect 0 0 4 0;
#X connect 0 0 1 0;
#X connect 1 0 2 0;
#X connect 2 0 3 0;
#X connect 3 0 5 0;
#X connect 4 0 5 1;
#X connect 5 0 7 0;
#X connect 6 0 0 0;
#X connect 9 0 8 0;
#X connect 10 0 1 1;
#X connect 11 0 2 1;
#X connect 12 0 3 1;
#X restore 290 131 pd peak;
#X obj 27 14 inlet~;
#X obj 225 249 *~;
#X text 273 217 Attack/Release;
#X text 253 248 Gain;
#X obj 225 345 *~;
#X obj 240 321 line~;
#X msg 240 297 \$1 5;
#X obj 273 99 == 0;
#X obj 273 74 t f f;
#X obj 393 152 + 100;
#X obj 393 175 dbtorms;
#X obj 463 152 swap 1;
#X obj 463 175 /;
#X obj 534 152 swap 100;
#X obj 534 175 /;
#X obj 604 152 + 100;
#X obj 604 175 dbtorms;
#X obj 225 373 outlet~;
#X obj 393 66 loadbang;
#X obj 393 123 route threshold ratio response gain rmspeak lookahead
, f 71;
#X msg 393 94 threshold -20 \, ratio 10 \, response 40 \, gain 20 \,
rmspeak 0 \, lookahead 0, f 67;
#X obj 393 200 s thresh2;
#X obj 463 200 s ratio2;
#X obj 534 200 s response2;
#X obj 604 200 s gain2;
#X obj 675 152 s rmspeak2;
#X obj 745 152 s lookahead2;
#X obj 261 194 r response2;
#X obj 28 167 r lookahead2;
#X obj 273 48 r rmspeak2;
#X obj 240 274 r gain2;
#X obj 27 142 delwrite~ COMP2 500;
#X obj 28 192 delread~ COMP2 0;
#X connect 0 0 1 0;
#X connect 1 0 5 1;
#X connect 2 0 0 0;
#X connect 3 0 0 0;
#X connect 4 0 2 0;
#X connect 4 0 3 0;
#X connect 4 0 35 0;
#X connect 5 0 8 0;
#X connect 8 0 21 0;
#X connect 9 0 8 1;
#X connect 10 0 9 0;
#X connect 11 0 2 1;
#X connect 12 0 11 0;
#X connect 12 1 3 1;
#X connect 13 0 14 0;
#X connect 14 0 25 0;
#X connect 15 0 16 0;
#X connect 15 1 16 1;
#X connect 16 0 26 0;
#X connect 17 0 18 0;
#X connect 17 1 18 1;
#X connect 18 0 27 0;
#X connect 19 0 20 0;
#X connect 20 0 28 0;
#X connect 22 0 24 0;
#X connect 23 0 13 0;
#X connect 23 1 15 0;
#X connect 23 2 17 0;
#X connect 23 3 19 0;
#X connect 23 4 29 0;
#X connect 23 5 30 0;
#X connect 24 0 23 0;
#X connect 31 0 1 1;
#X connect 32 0 36 0;
#X connect 33 0 12 0;
#X connect 34 0 10 0;
#X connect 36 0 5 0;
