#N canvas 1921 423 1231 1393 10;
#X obj 47 1148 dac~ 1 2;
#X obj 394 1219 dac~ 27 28 29 30;
#X obj 394 1153 r~ scope1;
#X obj 456 1153 r~ scope3;
#X obj 487 1176 r~ scope4;
#X obj 394 1097 s~ scope1;
#X obj 47 1102 r~ dac1;
#X obj 92 1124 r~ dac2;
#X obj 47 1076 s~ dac1;
#X obj 99 1076 s~ dac2;
#X obj 457 1097 s~ scope3;
#X obj 490 1121 s~ scope4;
#X obj 424 1121 s~ scope2;
#X obj 425 1177 r~ scope2;
#X obj 588 1097 print-signal 500;
#X obj 50 590 adc~ 3;
#X text 107 1150 stereo audio output;
#X obj 374 358 loadbang;
#X msg 249 376 2 12;
#X msg 49 374 50 0.01;
#X obj 129 807 unpack 0 0;
#X obj 99 612 unpack 0 0;
#X obj 156 690 unpack 0 0;
#X obj 374 410 unpack 0 0 0 0, f 19;
#X obj 249 399 s string-range;
#X obj 156 668 r string-range;
#X obj 652 397 s damp-decay;
#X obj 99 590 r highpass-gate;
#X obj 49 398 s highpass-gate;
#X obj 249 351 loadbang;
#X obj 49 349 loadbang;
#X obj 652 348 loadbang;
#X obj 107 834 feedback;
#X obj 374 437 s s1-length;
#X obj 50 899 s~ s1;
#X obj 47 1029 r~ s1;
#X obj 86 1029 r~ s2;
#X obj 125 1029 r~ s3;
#X obj 164 1029 r~ s4;
#X obj 411 461 s s2-length;
#X obj 448 436 s s3-length;
#X obj 485 461 s s4-length;
#X text 375 338 strings 1-4 lengths (as % of range);
#X obj 50 637 sensor-processing;
#X obj 129 783 r damp-decay;
#X obj 50 865 delay-line;
#X obj 373 806 unpack 0 0;
#X obj 343 611 unpack 0 0;
#X obj 400 689 unpack 0 0;
#X obj 400 667 r string-range;
#X obj 343 589 r highpass-gate;
#X obj 351 833 feedback;
#X obj 294 636 sensor-processing;
#X obj 373 782 r damp-decay;
#X obj 624 804 unpack 0 0;
#X obj 594 609 unpack 0 0;
#X obj 651 687 unpack 0 0;
#X obj 651 665 r string-range;
#X obj 594 587 r highpass-gate;
#X obj 602 831 feedback;
#X obj 545 634 sensor-processing;
#X obj 624 780 r damp-decay;
#X obj 863 803 unpack 0 0;
#X obj 833 608 unpack 0 0;
#X obj 890 686 unpack 0 0;
#X obj 890 664 r string-range;
#X obj 833 586 r highpass-gate;
#X obj 841 830 feedback;
#X obj 784 633 sensor-processing;
#X obj 863 779 r damp-decay;
#X obj 294 589 adc~ 4;
#X obj 545 587 adc~ 5;
#X obj 784 586 adc~ 6;
#X obj 322 666 r s2-length;
#X obj 573 664 r s3-length;
#X obj 812 663 r s4-length;
#X obj 78 667 r s1-length;
#X obj 294 898 s~ s2;
#X obj 545 896 s~ s3;
#X obj 784 895 s~ s4;
#X msg 374 385 0.1 0.3 0.6 0.9;
#X obj 294 864 delay-line;
#X obj 545 862 delay-line;
#X obj 784 861 delay-line;
#X obj 107 760 r~ s1;
#X obj 351 759 r~ s2;
#X obj 602 757 r~ s3;
#X obj 841 756 r~ s4;
#X obj 78 717 string-length;
#X obj 322 716 string-length;
#X obj 573 714 string-length;
#X obj 812 713 string-length;
#X text 247 317 string length range (ms), f 25;
#X text 48 38 The Unfinished Instrument The Unfinished Instrument consists
of four virtual string models sounding at different pitches. There
are three main components to the string model \; - Sensor processing:
high pass filter \, gate transfer function - String properties: string
length range and percent for each string - Delay line feedback: low
pass damping factor and decay factor At the bottom of the patch is
the audio output and debugging tools. For debugging you can visualise
signals in the oscilloscope or print them to the console at a regular
interval., f 71;
#X text 47 284 Sensor Processing high pass & gate transfer (Hz \, threshold
%), f 28;
#X text 248 283 String Properties, f 53;
#X text 649 286 Delay Line Feedback low pass damping & decay (Hz \,
%), f 25;
#X text 543 550 String 3, f 34;
#X text 781 550 String 4, f 34;
#X text 292 554 String 2, f 34;
#X text 50 555 String 1, f 35;
#X text 46 990 Audio Output, f 31;
#X text 394 998 Debugging Tools, f 55;
#X text 393 1045 In-browser Oscilloscope http://192.168.7.2/scope,
f 28;
#X text 587 1047 Print Signal print interval (ms), f 23;
#X msg 652 373 10000 0.95;
#X connect 2 0 1 0;
#X connect 3 0 1 2;
#X connect 4 0 1 3;
#X connect 6 0 0 0;
#X connect 7 0 0 1;
#X connect 13 0 1 1;
#X connect 15 0 43 0;
#X connect 17 0 80 0;
#X connect 18 0 24 0;
#X connect 19 0 28 0;
#X connect 20 0 32 1;
#X connect 20 1 32 2;
#X connect 21 0 43 1;
#X connect 21 1 43 2;
#X connect 22 0 88 1;
#X connect 22 1 88 2;
#X connect 23 0 33 0;
#X connect 23 1 39 0;
#X connect 23 2 40 0;
#X connect 23 3 41 0;
#X connect 25 0 22 0;
#X connect 27 0 21 0;
#X connect 29 0 18 0;
#X connect 30 0 19 0;
#X connect 31 0 105 0;
#X connect 32 0 45 2;
#X connect 35 0 8 0;
#X connect 35 0 9 0;
#X connect 36 0 8 0;
#X connect 36 0 9 0;
#X connect 37 0 8 0;
#X connect 37 0 9 0;
#X connect 38 0 8 0;
#X connect 38 0 9 0;
#X connect 43 0 45 0;
#X connect 44 0 20 0;
#X connect 45 0 34 0;
#X connect 46 0 51 1;
#X connect 46 1 51 2;
#X connect 47 0 52 1;
#X connect 47 1 52 2;
#X connect 48 0 89 1;
#X connect 48 1 89 2;
#X connect 49 0 48 0;
#X connect 50 0 47 0;
#X connect 51 0 81 2;
#X connect 52 0 81 0;
#X connect 53 0 46 0;
#X connect 54 0 59 1;
#X connect 54 1 59 2;
#X connect 55 0 60 1;
#X connect 55 1 60 2;
#X connect 56 0 90 1;
#X connect 56 1 90 2;
#X connect 57 0 56 0;
#X connect 58 0 55 0;
#X connect 59 0 82 2;
#X connect 60 0 82 0;
#X connect 61 0 54 0;
#X connect 62 0 67 1;
#X connect 62 1 67 2;
#X connect 63 0 68 1;
#X connect 63 1 68 2;
#X connect 64 0 91 1;
#X connect 64 1 91 2;
#X connect 65 0 64 0;
#X connect 66 0 63 0;
#X connect 67 0 83 2;
#X connect 68 0 83 0;
#X connect 69 0 62 0;
#X connect 70 0 52 0;
#X connect 71 0 60 0;
#X connect 72 0 68 0;
#X connect 73 0 89 0;
#X connect 74 0 90 0;
#X connect 75 0 91 0;
#X connect 76 0 88 0;
#X connect 80 0 23 0;
#X connect 81 0 77 0;
#X connect 82 0 78 0;
#X connect 83 0 79 0;
#X connect 84 0 32 0;
#X connect 85 0 51 0;
#X connect 86 0 59 0;
#X connect 87 0 67 0;
#X connect 88 0 45 1;
#X connect 89 0 81 1;
#X connect 90 0 82 1;
#X connect 91 0 83 1;
#X connect 105 0 26 0;
#X coords 0 -1 1 1 85 60 1 100 100;
