#N canvas 0 0 1440 874 10;
#X obj 60 808 dac~ 1 2, f 11;
#X obj 396 742 r~ scope1;
#X obj 458 742 r~ scope3;
#X obj 489 765 r~ scope4;
#X obj 391 685 s~ scope1;
#X obj 60 762 r~ dac1;
#X obj 123 762 r~ dac2;
#X obj 56 675 s~ dac1;
#X obj 108 675 s~ dac2;
#X obj 459 686 s~ scope3;
#X obj 492 710 s~ scope4;
#X obj 422 712 s~ scope2;
#X obj 427 766 r~ scope2;
#X obj 591 690 print-signal 500;
#X text 135 808 stereo audio output;
#X obj 56 628 r~ s1;
#X obj 95 628 r~ s2;
#X obj 134 628 r~ s3;
#X obj 173 628 r~ s4;
#X text 56 604 Audio Output, f 16;
#X text 395 634 In-browser Oscilloscope http://192.168.7.2/scope,
f 28;
#X obj 53 278 adc~ 3;
#X obj 53 524 s~ s1;
#X obj 110 410 r~ s1;
#X obj 396 808 dac~ 27 28 29 30;
#X obj 81 375 mtoms 60;
#X obj 53 301 hip~ 50;
#X text 106 300 remove low freq;
#X text 99 279 mic 1;
#X text 149 411 feedback;
#X text 99 345 gain [1-10];
#X text 143 374 MIDI note [1-128];
#X text 180 434 damping [100-20k];
#X text 161 458 decay [0-0.999];
#X obj 322 296 hip~ 50;
#X obj 322 340 *~ 7.5;
#X text 375 295 remove low freq;
#X text 368 274 mic 1;
#X text 418 406 feedback;
#X text 368 340 gain [1-10];
#X text 412 369 MIDI note [1-128];
#X text 449 429 damping [100-20k];
#X text 436 454 decay [0-0.999];
#X obj 322 490 delay-line;
#X obj 598 293 hip~ 50;
#X obj 598 337 *~ 7.5;
#X text 651 292 remove low freq;
#X text 644 271 mic 1;
#X text 694 403 feedback;
#X text 644 337 gain [1-10];
#X text 688 366 MIDI note [1-128];
#X text 725 426 damping [100-20k];
#X text 706 452 decay [0-0.999];
#X obj 858 302 hip~ 50;
#X obj 858 346 *~ 7.5;
#X text 911 301 remove low freq;
#X text 904 280 mic 1;
#X text 954 412 feedback;
#X text 904 346 gain [1-10];
#X text 948 375 MIDI note [1-128];
#X text 985 435 damping [100-20k];
#X text 967 461 decay [0-0.999];
#X obj 322 274 adc~ 4;
#X obj 598 271 adc~ 5;
#X obj 858 280 adc~ 6;
#X obj 322 519 s~ s2;
#X obj 598 516 s~ s3;
#X obj 858 525 s~ s4;
#X obj 379 405 r~ s2;
#X obj 655 402 r~ s3;
#X obj 915 411 r~ s4;
#X obj 53 495 delay-line;
#X obj 598 487 delay-line;
#X obj 858 496 delay-line;
#X obj 105 709 loadbang;
#X obj 60 784 loadwait;
#X obj 123 784 loadwait;
#X obj 110 459 *~ 0.99;
#X obj 379 454 *~ 0.99;
#X obj 655 451 *~ 0.99;
#X obj 915 460 *~ 0.99;
#X obj 110 434 lop~ 10000;
#X obj 379 429 lop~ 10000;
#X obj 655 425 lop~ 10000;
#X obj 915 435 lop~ 10000;
#X obj 350 370 mtoms 64;
#X obj 626 367 mtoms 67;
#X obj 886 376 mtoms 69;
#X text 136 732 wait x ms before outputting audio;
#X msg 105 731 1000;
#X text 49 13 The "Unfinished Instrument", f 29;
#X obj 53 323 gate 0.1;
#X obj 322 318 gate 0.1;
#X obj 598 315 gate 0.1;
#X obj 858 324 gate 0.1;
#X text 112 322 remove below threshold;
#X text 917 325 remove below threshold;
#X text 380 319 remove below threshold;
#X text 653 315 remove below threshold;
#X obj 592 720 print;
#X obj 53 345 *~ 7.5;
#X text 182 748 (to avoid initial signal pop);
#X text 589 636 Print a signal at an interval (ms) \, and normal print
for all else, f 35;
#X text 46 33 a. Four microphone capsules are used to excite a simple
model of a string using a delay and filtered \, decaying feedback,
f 68;
#X text 46 64 b. The microphone signals are passed through a high pass
filter and gate in order to remove the DC component and any consistently
present noise, f 68;
#X text 46 108 c. A MIDI note number is converted to milliseconds to
define the delay time of the delay line \, which defines the pitch
of the string, f 68;
#X text 46 142 d. The output of the delay line is fed back in \, after
being filtered through a low pass filter \, and decayed, f 68;
#X text 46 174 e. To update the patch running on the board \, save
any open patch (it will take a few seconds before you hear any changes)
, f 68;
#X text 46 204 f. To help with understanding the patch \, you can visualise
signals in the browser-based oscilloscope \, and you can print text
and signals to the browser-based terminal (see bottom of patch), f
68;
#X text 471 31 g. The model is similar to a typical Karplus-Strong
digital waveguide. For more \, see the printed handout of search for
"Karplus Strong" in Google, f 65;
#X text 471 110 i. If you have any questions please ask. Thanks and
have fun!, f 65;
#X text 471 77 h. Your goal in this task is to 'finish the instrument'
by your definition and by any means - there are no other rules!, f
65;
#X text 471 130 TIP 1: remember you can right-click on an object to
see it's helper patch, f 65;
#X text 471 163 TIP 2: browse the 'Help>List of objects...' patch for
ideas, f 65;
#X text 471 182 TIP 3: be careful with gain and feedback parameters
to protect your ears!, f 65;
#X text 471 214 TIP 4: if you need more PureData help \, try the manual
at https://puredata.info/docs/manuals/pd/, f 65;
#X text 22 280 a.;
#X text 22 313 b.;
#X text 21 374 c.;
#X text 21 427 d.;
#X text 392 613 f. Debugging Tools;
#X connect 1 0 24 0;
#X connect 2 0 24 2;
#X connect 3 0 24 3;
#X connect 5 0 75 0;
#X connect 6 0 76 0;
#X connect 12 0 24 1;
#X connect 15 0 7 0;
#X connect 15 0 8 0;
#X connect 16 0 7 0;
#X connect 16 0 8 0;
#X connect 17 0 7 0;
#X connect 17 0 8 0;
#X connect 18 0 7 0;
#X connect 18 0 8 0;
#X connect 21 0 26 0;
#X connect 23 0 81 0;
#X connect 25 0 71 1;
#X connect 26 0 91 0;
#X connect 34 0 92 0;
#X connect 35 0 43 0;
#X connect 43 0 65 0;
#X connect 44 0 93 0;
#X connect 45 0 72 0;
#X connect 53 0 94 0;
#X connect 54 0 73 0;
#X connect 62 0 34 0;
#X connect 63 0 44 0;
#X connect 64 0 53 0;
#X connect 68 0 82 0;
#X connect 69 0 83 0;
#X connect 70 0 84 0;
#X connect 71 0 22 0;
#X connect 72 0 66 0;
#X connect 73 0 67 0;
#X connect 74 0 89 0;
#X connect 75 0 0 0;
#X connect 76 0 0 1;
#X connect 77 0 71 2;
#X connect 78 0 43 2;
#X connect 79 0 72 2;
#X connect 80 0 73 2;
#X connect 81 0 77 0;
#X connect 82 0 78 0;
#X connect 83 0 79 0;
#X connect 84 0 80 0;
#X connect 85 0 43 1;
#X connect 86 0 72 1;
#X connect 87 0 73 1;
#X connect 89 0 75 1;
#X connect 89 0 76 1;
#X connect 91 0 100 0;
#X connect 92 0 35 0;
#X connect 93 0 45 0;
#X connect 94 0 54 0;
#X connect 100 0 71 0;
