#N canvas 2676 1036 450 300 10;
#X obj 32 22 inlet~;
#X obj 32 99 snapshot~;
#X obj 32 121 print;
#X obj 106 20 loadbang;
#X obj 106 79 metro \$1;
#X obj 166 15 inlet;
#X text 167 58 print interval (ms);
#X msg 120 43 500;
#X connect 0 0 1 0;
#X connect 1 0 2 0;
#X connect 3 0 4 0;
#X connect 3 0 7 0;
#X connect 4 0 1 0;
#X connect 5 0 4 1;
#X connect 7 0 4 1;
