#N canvas 1766 1381 547 205 10;
#X obj 33 21 inlet~;
#X obj 81 21 inlet;
#X obj 33 49 hip~ \$1;
#X obj 128 21 inlet;
#X obj 33 165 outlet~;
#X text 133 49 <<< centre (i.e. DC block) signal with high-pass filter
;
#X text 146 82 <<< thresholding to remove any consistent noise in the
excitation signal;
#X obj 33 85 gate-transfer \$2;
#X obj 175 21 inlet;
#X obj 33 114 *~ \$3;
#X text 218 21 gain;
#X connect 0 0 2 0;
#X connect 1 0 2 1;
#X connect 2 0 7 0;
#X connect 3 0 7 1;
#X connect 7 0 9 0;
#X connect 8 0 9 1;
#X connect 9 0 4 0;
