#N canvas 246 473 717 621 10;
#X obj 48 213 delay-line;
#X obj 105 153 r~ s1;
#X obj 49 86 sensor-processing 50 0.01;
#X obj 76 123 string-length 0.1 2 12;
#X obj 105 182 feedback 10000 0.99;
#X obj 49 60 inlet~;
#X obj 48 235 outlet~;
#X connect 0 0 6 0;
#X connect 1 0 4 0;
#X connect 2 0 0 0;
#X connect 3 0 0 1;
#X connect 4 0 0 2;
#X connect 5 0 2 0;
