#N canvas 1816 1559 388 329 10;
#X obj 33 92 sig~ 1;
#X obj 60 53 inlet;
#X obj 33 215 outlet~;
#X obj 108 53 inlet;
#X obj 166 53 inlet;
#X obj 33 143 *~;
#X text 69 32 %;
#X text 105 31 lower;
#X text 165 31 upper;
#X obj 33 116 -~ \$1;
#X obj 33 189 +~ \$2;
#X obj 33 165 *~ \$3;
#X obj 82 141 - \$2;
#X obj 83 115 f \$3;
#X obj 83 91 loadbang;
#X connect 0 0 9 0;
#X connect 1 0 9 1;
#X connect 3 0 10 1;
#X connect 3 0 12 1;
#X connect 4 0 12 0;
#X connect 5 0 11 0;
#X connect 9 0 5 0;
#X connect 9 0 5 1;
#X connect 10 0 2 0;
#X connect 11 0 10 0;
#X connect 12 0 11 1;
#X connect 13 0 12 0;
#X connect 14 0 13 0;
