#N canvas 134 60 390 420 10;
#X obj 147 280 dac~, f 6;
#X obj 33 245 adc~;
#X obj 147 89 mtof;
#X obj 147 111 t b f;
#X obj 147 155 /;
#X msg 147 133 1;
#X obj 147 177 * 1000;
#X obj 54 314 delwrite~ deli1 1000;
#X obj 147 200 vd~ deli1 12;
#X obj 147 224 lop~ 6000;
#X obj 147 248 *~ 0.95;
#X msg 147 66 36;
#X obj 147 41 loadbang;
#X text 185 67 Add midi note number here!;
#X text 98 368 Just a basic Karplus-Strong;
#X connect 1 1 7 0;
#X connect 2 0 3 0;
#X connect 3 0 5 0;
#X connect 3 1 4 1;
#X connect 4 0 6 0;
#X connect 5 0 4 0;
#X connect 6 0 8 0;
#X connect 8 0 9 0;
#X connect 9 0 10 0;
#X connect 10 0 7 0;
#X connect 10 0 0 0;
#X connect 11 0 2 0;
#X connect 12 0 11 0;
